HIERARCHY
ROOT hip
{
  OFFSET 0 0 0
  CHANNELS 6 Xposition Yposition Zposition Zrotation Yrotation Xrotation
  JOINT abdomen
  {
    OFFSET 0 20.6881 -0.73152
    CHANNELS 3 Zrotation Xrotation Yrotation
    JOINT chest
    {
      OFFSET 0 11.7043 -0.48768
      CHANNELS 3 Zrotation Xrotation Yrotation
      JOINT neck
      {
        OFFSET 0 22.1894 -2.19456
        CHANNELS 3 Zrotation Xrotation Yrotation
        JOINT head
        {
          OFFSET -0.24384 7.07133 1.2192
          CHANNELS 3 Zrotation Xrotation Yrotation
          JOINT leftEye
          {
            OFFSET 4.14528 8.04674 8.04672
            CHANNELS 3 Zrotation Xrotation Yrotation
            End Site
            {
              OFFSET 1 0 0
            }
          }
          JOINT rightEye
          {
            OFFSET -3.6576 8.04674 8.04672
            CHANNELS 3 Zrotation Xrotation Yrotation
            End Site
            {
              OFFSET 1 0 0
            }
          }
        }
      }
      JOINT rCollar
      {
        OFFSET -2.68224 19.2634 -4.8768
        CHANNELS 3 Zrotation Xrotation Yrotation
        JOINT rShldr
        {
          OFFSET -8.77824 -1.95073 1.46304
          CHANNELS 3 Zrotation Xrotation Yrotation
          JOINT rForeArm
          {
            OFFSET -28.1742 -1.7115 0.48768
            CHANNELS 3 Zrotation Xrotation Yrotation
            JOINT rHand
            {
              OFFSET -22.5879 0.773209 7.07136
              CHANNELS 3 Zrotation Xrotation Yrotation
              JOINT rThumb1
              {
                OFFSET -1.2192 -0.487915 3.41376
                CHANNELS 3 Zrotation Xrotation Yrotation
                JOINT rThumb2
                {
                  OFFSET -3.37035 -0.52449 3.41376
                  CHANNELS 3 Zrotation Xrotation Yrotation
                  End Site
                  {
                    OFFSET -1.78271 -1.18214 1.43049
                  }
                }
              }
              JOINT rIndex1
              {
                OFFSET -7.75947 0.938293 5.60832
                CHANNELS 3 Zrotation Xrotation Yrotation
                JOINT rIndex2
                {
                  OFFSET -2.54057 -0.884171 1.56538
                  CHANNELS 3 Zrotation Xrotation Yrotation
                  End Site
                  {
                    OFFSET -1.62519 -0.234802 1.16502
                  }
                }
              }
              JOINT rMid1
              {
                OFFSET -8.24714 1.18213 3.41376
                CHANNELS 3 Zrotation Xrotation Yrotation
                JOINT rMid2
                {
                  OFFSET -3.10165 -0.590103 1.0647
                  CHANNELS 3 Zrotation Xrotation Yrotation
                  End Site
                  {
                    OFFSET -2.48547 -0.328903 0.83742
                  }
                }
              }
              JOINT rRing1
              {
                OFFSET -8.82822 0.546677 1.51678
                CHANNELS 3 Zrotation Xrotation Yrotation
                JOINT rRing2
                {
                  OFFSET -2.60934 -0.819778 -0.0198488
                  CHANNELS 3 Zrotation Xrotation Yrotation
                  End Site
                  {
                    OFFSET -2.33842 -0.294052 0.168128
                  }
                }
              }
              JOINT rPinky1
              {
                OFFSET -8.27202 -0.0477905 -0.4584
                CHANNELS 3 Zrotation Xrotation Yrotation
                JOINT rPinky2
                {
                  OFFSET -1.82734 -0.647385 -0.700984
                  CHANNELS 3 Zrotation Xrotation Yrotation
                  End Site
                  {
                    OFFSET -1.69225 -0.51767 -0.607171
                  }
                }
              }
            }
          }
        }
      }
      JOINT lCollar
      {
        OFFSET 2.68224 19.2634 -4.8768
        CHANNELS 3 Zrotation Xrotation Yrotation
        JOINT lShldr
        {
          OFFSET 8.77824 -1.95073 1.46304
          CHANNELS 3 Zrotation Xrotation Yrotation
          JOINT lForeArm
          {
            OFFSET 28.1742 -1.7115 0.48768
            CHANNELS 3 Zrotation Xrotation Yrotation
            JOINT lHand
            {
              OFFSET 22.5879 0.773209 7.07136
              CHANNELS 3 Zrotation Xrotation Yrotation
              JOINT lThumb1
              {
                OFFSET 1.2192 -0.487915 3.41376
                CHANNELS 3 Zrotation Xrotation Yrotation
                JOINT lThumb2
                {
                  OFFSET 3.37035 -0.52449 3.41376
                  CHANNELS 3 Zrotation Xrotation Yrotation
                  End Site
                  {
                    OFFSET 1.78271 -1.18214 1.43049
                  }
                }
              }
              JOINT lIndex1
              {
                OFFSET 7.75947 0.938293 5.60832
                CHANNELS 3 Zrotation Xrotation Yrotation
                JOINT lIndex2
                {
                  OFFSET 2.54057 -0.884171 1.56538
                  CHANNELS 3 Zrotation Xrotation Yrotation
                  End Site
                  {
                    OFFSET 1.62519 -0.234802 1.16502
                  }
                }
              }
              JOINT lMid1
              {
                OFFSET 8.24714 1.18213 3.41376
                CHANNELS 3 Zrotation Xrotation Yrotation
                JOINT lMid2
                {
                  OFFSET 3.10165 -0.590103 1.0647
                  CHANNELS 3 Zrotation Xrotation Yrotation
                  End Site
                  {
                    OFFSET 2.48547 -0.328903 0.83742
                  }
                }
              }
              JOINT lRing1
              {
                OFFSET 8.82822 0.546677 1.51678
                CHANNELS 3 Zrotation Xrotation Yrotation
                JOINT lRing2
                {
                  OFFSET 2.60934 -0.819778 -0.0198488
                  CHANNELS 3 Zrotation Xrotation Yrotation
                  End Site
                  {
                    OFFSET 2.33842 -0.294052 0.168128
                  }
                }
              }
              JOINT lPinky1
              {
                OFFSET 8.27202 -0.0477905 -0.4584
                CHANNELS 3 Zrotation Xrotation Yrotation
                JOINT lPinky2
                {
                  OFFSET 1.82734 -0.647385 -0.700984
                  CHANNELS 3 Zrotation Xrotation Yrotation
                  End Site
                  {
                    OFFSET 1.69225 -0.51767 -0.607171
                  }
                }
              }
            }
          }
        }
      }
    }
  }
  JOINT rButtock
  {
    OFFSET -8.77824 4.35084 1.2192
    CHANNELS 3 Zrotation Xrotation Yrotation
    JOINT rThigh
    {
      OFFSET 0 -1.70687 -2.19456
      CHANNELS 3 Zrotation Xrotation Yrotation
      JOINT rShin
      {
        OFFSET 0 -36.8199 0.73152
        CHANNELS 3 Zrotation Xrotation Yrotation
        JOINT rFoot
        {
          OFFSET 0.73152 -45.1104 -5.12064
          CHANNELS 3 Zrotation Xrotation Yrotation
          End Site
          {
            OFFSET -1.1221 -3.69964 12.103
          }
        }
      }
    }
  }
  JOINT lButtock
  {
    OFFSET 8.77824 4.35084 1.2192
    CHANNELS 3 Zrotation Xrotation Yrotation
    JOINT lThigh
    {
      OFFSET 0 -1.70687 -2.19456
      CHANNELS 3 Zrotation Xrotation Yrotation
      JOINT lShin
      {
        OFFSET 0 -36.8199 0.73152
        CHANNELS 3 Zrotation Xrotation Yrotation
        JOINT lFoot
        {
          OFFSET -0.73152 -45.1104 -5.12064
          CHANNELS 3 Zrotation Xrotation Yrotation
          End Site
          {
            OFFSET 1.1221 -3.69964 12.103
          }
        }
      }
    }
  }
}
MOTION
Frames:	7
Frame Time:	0.03333
0.0 0.0 0.0 0.0 0.0 0.0 0.0 0.0 0.0 0.0 0.0 0.0 0.0 0.0 0.0 0.0 0.0 0.0 0.0 0.0 0.0 0.0 0.0 0.0 0.0 0.0 0.0 0.0 0.0 0.0 0.0 0.0 0.0 0.0 0.0 0.0 0.0 0.0 0.0 0.0 0.0 0.0 0.0 0.0 0.0 0.0 0.0 0.0 0.0 0.0 0.0 0.0 0.0 0.0 0.0 0.0 0.0 0.0 0.0 0.0 0.0 0.0 0.0 0.0 0.0 0.0 0.0 0.0 0.0 0.0 0.0 0.0 0.0 0.0 0.0 0.0 0.0 0.0 0.0 0.0 0.0 0.0 0.0 0.0 0.0 0.0 0.0 0.0 0.0 0.0 0.0 0.0 0.0 0.0 0.0 0.0 0.0 0.0 0.0 0.0 0.0 0.0 0.0 0.0 0.0 0.0 0.0 0.0 0.0 0.0 0.0 0.0 0.0 0.0 0.0 0.0 0.0 0.0 0.0 0.0 0.0 0.0 0.0 0.0 0.0 0.0 0.0 0.0 0.0 0.0 0.0 0.0
-0.16440000000000002 65.7667 -0.28600000000000003 0.269482 -48.231985 -1.267434 -0.361303 4.193118 0.011404 7.221392 -12.327257 -138.331977 -0.213474 -1.90595 -168.3293 -43.51555 12.250849 -87.917752 -177.217814 -1.410418 -53.758347 151.237127 16.109649 -57.789806 66.1764 22.957729 14.199375 -3.199684 62.763268 17.884743 167.901597 43.699709 63.860836 46.191639 4.745485 -156.354818 -157.173033 53.464561 14.829717 150.641094 79.612352 -17.777814 -94.315351 67.373558 -117.080783 52.335994 61.537332 30.29587 -179.860934 7.611863 -93.815057 -111.168853 72.8057 15.233205 -84.027206 8.562414 -101.329058 122.432008 61.608014 -128.091944 -157.159767 37.345909 -86.643952 -52.146814 -73.029077 -71.357394 -61.921514 25.328299 -2.636445 -17.819191 2.620063 -19.762624 -21.629459 -13.463414 -165.49914 -50.884584 -43.931346 61.841138 89.721487 2.316461 -30.472273 113.315876 -25.134982 -58.734945 3.424526 -38.741528 65.374322 -170.358712 5.061026 72.301649 27.941716 51.400673 58.240307 90.648558 -5.539839 -170.708451 85.618953 16.700926 56.798636 -133.630901 30.741254 77.172721 9.961527 -13.096461 67.582084 36.083976 -3.22802 -13.625617 -46.06547 20.985461 -109.037155 -1.143053 50.561111 -2.292249 3.866113 -7.358774 43.203274 12.631454 -62.258 -169.298302 -60.092007 0.744446 -91.460583 -2.287705 60.143773 -17.185922 -7.643776 -0.009632 -101.141082 75.85023 32.215556 -91.016264
-0.9950000000000001 63.369299999999996 2.6963 -54.487316 69.807195 -51.173403 21.439518 13.889949 121.438018 -0.929069 10.890832 -125.702391 -27.436311 19.607242 -79.004633 30.438413 32.531008 108.974068 -38.939546 22.662984 -59.09242 -21.291454 2.110864 -11.195245 81.167062 -67.69501 71.321936 -67.481438 -18.423908 -63.058125 -174.392633 13.526514 -78.308041 10.066702 -12.780626 9.024747 14.340237 -83.863295 -8.654965 -15.246946 -52.86569 -98.596463 161.117695 38.612004 -179.24969 -113.894991 -78.863873 -142.273713 -82.403421 68.099214 83.676302 -178.125624 29.005014 -171.785227 -35.865865 -1.310452 -0.894036 44.87218 41.017382 -13.213656 -117.305253 20.815134 -146.997472 168.446609 -66.034551 126.147294 81.987322 -67.174372 101.882612 -16.922107 -59.359496 35.009843 171.135987 58.729397 120.248103 4.295242 32.906167 14.955275 90.894046 37.651711 -45.60135 -13.941583 -68.126956 -2.784912 53.890234 18.695696 -50.376299 16.438783 -44.434299 14.341653 -20.402141 -45.448089 -15.238428 3.098215 61.551637 -28.022066 88.3535 47.467491 -90.896368 162.609115 -30.743816 178.917753 -36.408919 8.836127 50.034163 49.197667 -33.450628 -62.283625 4.884467 65.361779 -180.0 52.391695 72.144378 50.821322 -52.106665 25.406433 172.995334 -105.803283 -47.855916 -174.840941 -98.712103 8.210715 -13.945502 161.269224 -34.762015 111.918109 82.939454 29.133811 155.096496 151.251807 2.086468 -129.055714
-1.2498 59.6022 3.6242000000000005 -56.797504 70.621215 -52.162218 22.937908 6.985281 106.033114 4.01852 13.511865 -105.855185 7.050644 18.437 87.745738 -21.634489 -3.638822 -49.602552 64.541839 0.916503 1.451348 16.344813 5.212844 35.175403 -113.683428 38.043152 114.78934 -94.438952 1.669682 100.316591 82.108552 -33.659792 -99.874891 -106.384539 54.885524 87.130978 -123.70941 70.447137 40.857471 -94.667939 -13.704275 42.988951 -151.609452 -15.263254 125.429444 -21.92129 34.13833 25.835624 -121.278976 27.684318 96.353025 52.330183 0.363959 16.426271 4.392813 1.773563 -16.088041 -72.379574 -67.972001 -101.234067 39.190521 0.922586 32.537454 -112.073255 65.600161 -115.432377 4.345803 25.952136 -0.840887 5.330179 -3.216094 -39.76114 6.914005 -75.786617 -38.277092 6.33929 25.678514 -2.311973 -13.188198 -19.847446 35.031013 73.285591 -50.789634 -128.219235 -158.6722 -69.595508 -103.133196 -172.476228 -41.910077 -83.460544 160.745839 13.165964 -156.027361 -3.174717 26.457198 -5.157269 40.446885 75.239725 -81.229942 54.839837 -45.336792 77.971188 63.804606 -33.025968 18.004592 -56.938192 -44.056019 -14.002085 97.420306 -3.255868 63.618042 -119.806642 60.045499 -63.603046 -45.479639 -1.514013 52.276039 143.490138 -18.269205 -2.24346 37.393122 30.283846 -0.0 90.467374 -64.547613 90.422014 -69.685876 59.930058 159.71001 -10.714037 14.814191 -81.568985
-0.8185 59.5951 2.4153000000000002 -78.209663 75.189209 -68.175382 13.655851 0.413193 89.804724 -0.235448 3.130158 -86.921253 -17.472786 15.533859 -22.472035 36.037841 -11.434027 58.748185 55.555838 12.932438 24.285982 66.786637 9.459116 14.307018 58.238207 -84.073866 31.991673 -50.836262 -16.280542 -45.273915 -85.676246 30.20501 -119.357559 -176.976154 -78.059247 164.17575 166.87175 21.208316 88.367243 132.263438 -4.103615 78.655342 -179.02407 -74.330515 112.918567 -6.690389 -25.64946 28.783884 15.780282 -19.315124 37.371903 -15.999033 -20.155905 -41.656646 -123.104832 -12.996324 -155.864924 -57.915437 -12.137588 -128.719132 50.254555 75.676634 6.812213 33.977097 -61.168973 45.200626 -3.219334 -3.298346 0.037767 110.524722 25.004965 -112.674874 81.713461 -39.591156 101.178183 -27.094416 -42.324138 -29.24895 153.469576 -12.387144 -114.419823 79.759852 24.419151 19.382659 117.810327 -60.559636 170.565767 -135.857487 -66.573391 -49.68184 169.289173 -22.278092 -175.186337 0.468689 -40.895743 1.5842 -61.29646 85.318702 28.260967 40.963415 -44.992122 46.007172 166.314641 -11.532376 128.101548 -150.429315 51.662803 -1.590047 -0.175647 7.757651 -0.205226 -5.840581 -13.532113 -23.613172 -23.210504 50.25602 -48.806688 170.980153 -28.670479 -39.741905 69.347667 15.773643 47.201177 -70.626449 -48.209824 162.055151 26.701014 -73.178508 175.477768 87.572021 24.432318 -18.126054
0.1915 58.038599999999995 0.9972 -80.331798 74.791479 -70.704737 10.249565 2.287283 119.755944 -3.418872 -0.523427 -115.810447 -2.442997 23.014914 75.157763 -31.076437 -19.963233 -49.162978 -4.52626 -2.719558 61.981452 46.142195 -5.159686 -12.076924 3.771538 -17.694465 -0.217548 78.299673 24.796135 -52.480007 -4.894538 3.636254 111.711396 -2.802939 -38.828588 -5.478814 154.743277 -6.84663 90.725042 143.557762 -65.480493 156.353669 -9.69023 -18.190417 -15.342641 103.647392 -69.879172 27.652323 131.438545 -49.276819 92.595514 -65.877977 48.69862 39.25047 -121.674634 -46.852332 -131.826622 -13.067129 -49.033651 -57.145657 171.989658 -62.037082 -136.364135 85.866061 2.197921 -114.156897 -6.48428 -44.152241 4.978564 -41.890467 14.039801 -37.793574 -81.113378 -42.571838 -80.868639 -179.084887 59.357885 -164.319132 27.066793 37.915298 -12.861381 39.11704 51.355094 -45.602547 150.964599 -0.457494 -147.270656 -25.328705 -1.882529 73.962024 30.531046 31.865942 1.026681 18.937784 55.520081 -50.430305 64.247368 84.442216 -85.664162 21.731194 1.681487 10.037797 23.087436 0.786035 8.295656 -19.579504 -52.222698 -119.175463 27.528944 27.224653 43.707398 -48.8594 5.001927 4.407726 56.108499 11.705554 14.125738 -149.863798 -12.353952 134.071182 25.73405 -4.729278 37.17406 -14.806979 -64.419302 -13.537054 -59.757202 75.519609 -74.089069 52.92905 -26.340065 158.306993
1.0153 57.23930000000001 -0.2186 -82.971635 75.27089 -74.142591 10.541374 6.058856 0.0 1.027597 -4.582098 5.285688 -12.143901 13.354477 -18.102773 30.634588 -17.065729 53.125357 -44.144792 -17.899323 42.449641 38.972768 -2.348968 -6.63181 -132.426033 54.037415 132.633461 -102.156495 -0.12112 106.446053 -175.272578 23.708532 -70.260388 -4.909374 -29.436316 -9.086996 -15.418988 -10.831976 -8.485249 -72.758079 1.068215 110.007265 -46.928468 25.424478 -3.483277 0.490032 25.066339 69.424466 9.177121 -24.84955 11.751127 -160.581187 -27.494449 146.242681 -3.228314 52.069324 2.767984 -169.492724 -16.181788 148.180299 110.386646 -70.530625 167.76918 168.558481 -36.757707 -49.457926 4.09678 -1.51665 -0.994796 -64.816599 -20.608061 -70.345723 -6.580984 -23.732802 -30.396783 7.316543 73.50218 -4.063581 106.493856 34.326466 -68.661142 29.445308 0.811203 -61.926447 152.490164 9.547322 -134.845198 11.994363 6.283373 99.879378 0.690986 -47.108957 -15.294414 -41.584727 64.190883 52.788542 78.318012 -66.583784 91.314596 43.839598 -82.770206 94.387629 77.317155 -45.770562 54.349723 45.38868 9.637699 -103.721784 -14.059312 10.186364 20.993007 -1.419023 -16.750608 -160.764221 -43.522309 -34.36092 78.306028 104.777798 -12.108624 -4.68736 53.511865 77.61498 100.696159 -131.088209 -8.250983 -180.0 -72.719649 -49.7331 161.144503 -148.23956 -26.340581 64.640023
